<?xml version="1.0" standalone="no"?>
<!DOCTYPE svg PUBLIC "-//W3C//DTD SVG 20010904//EN"
 "http://www.w3.org/TR/2001/REC-SVG-20010904/DTD/svg10.dtd">
<svg version="1.0" xmlns="http://www.w3.org/2000/svg"
 width="400.000000pt" height="250.000000pt" viewBox="0 0 400.000000 250.000000"
 preserveAspectRatio="xMidYMid meet">

<g transform="translate(0.000000,250.000000) scale(0.100000,-0.100000)"
fill="#000000" stroke="none">
<path d="M0 2064 c0 -427 0 -436 21 -466 12 -16 24 -26 28 -23 3 4 11 110 16
237 l10 231 165 48 c91 27 195 58 232 70 l68 21 270 -43 c149 -23 273 -39 276
-37 3 4 74 379 74 396 0 1 -261 2 -580 2 l-580 0 0 -436z"/>
<path d="M3236 2488 c57 -94 139 -205 352 -478 140 -179 258 -327 263 -328 5
-2 41 8 79 23 l70 27 0 384 0 384 -386 0 c-305 0 -384 -3 -378 -12z"/>
<path d="M3229 438 c-51 -79 -104 -163 -117 -188 -13 -25 -49 -91 -79 -147
l-55 -103 511 0 511 0 0 254 0 255 -42 6 c-76 10 -590 65 -613 65 -18 0 -41
-28 -116 -142z"/>
<path d="M220 345 l-215 -72 -3 -136 -3 -137 437 0 436 0 -158 153 c-88 84
-186 178 -219 208 l-60 56 -215 -72z"/>
</g>
</svg>
